<?xml version="1.0" encoding="UTF-8"?>
<svg id="Layer_2" data-name="Layer 2" xmlns="http://www.w3.org/2000/svg" viewBox="0 0 50 58.12">
  <g id="Layer_1-2" data-name="Layer 1">
    <path d="M49.98,20.58s0,0,0,0C49.77,17.04,47.71,.29,27.54,0c-.18,0-.35,0-.53,0-.09,0-.18,0-.27,0C12.27,.09,6.59,7.17,4.37,12.34c-.63,1.7-1.1,3.51-1.41,5.35l13.5-.07c.84-4.43,4.18-6.65,10.02-6.65,2.53,0,4.73,.63,6.59,1.9,1.86,1.27,2.69,3.61,2.69,6.98v2.73l-6.96,.31c-3.52,.14-6.98,.49-10.39,1.06-3.41,.56-6.49,1.51-9.23,2.85-2.74,1.34-4.96,3.2-6.65,5.59-1.69,2.39-2.53,5.48-2.53,9.28,0,2.88,.49,5.36,1.48,7.44,.99,2.08,2.3,3.78,3.96,5.12,1.65,1.34,3.59,2.32,5.8,2.95,2.22,.63,4.55,.95,7.01,.95,4.29,0,7.79-.77,10.5-2.32,2.71-1.55,4.83-3.14,7.01-5.6v6.55h14.24V21.94c0-.46,0-.91-.02-1.36Zm-14.22,14.44c0,4.62-2.7,8.59-6.79,10.71-3.51,1.82-9.55,2.56-12.62-.55-1.93-1.96-2.11-5.28-.84-7.64,1.35-2.5,4.19-3.67,6.83-4.23,.89-.19,13.41-1.35,13.41-1.14,0,0,0,2.85,0,2.85Z"/>
  </g>
</svg>