<?xml version="1.0" encoding="UTF-8"?>
<svg id="Layer_2" data-name="Layer 2" xmlns="http://www.w3.org/2000/svg" viewBox="0 0 271.14 271.14">
  <defs>
    <style>
      .cls-1 {
        fill: #ff2878;
      }
    </style>
  </defs>
  <g id="Layer_1-2" data-name="Layer 1">
    <g>
      <g>
        <g id="_Radial_Repeat_" data-name="&amp;lt;Radial Repeat&amp;gt;">
          <path class="cls-1" d="m117.17,178.63l10.18,2.84-9.6,74.1c-2.37,8.49-11.18,13.45-19.67,11.08h0c-8.49-2.37-13.45-11.18-11.08-19.67l30.17-68.36Z"/>
        </g>
        <g id="_Radial_Repeat_-2" data-name="&amp;lt;Radial Repeat&amp;gt;">
          <path class="cls-1" d="m102.09,168.31l8.32,6.52-37.23,64.79c-5.44,6.94-15.48,8.15-22.41,2.71h0c-6.94-5.44-8.15-15.48-2.71-22.41l54.03-51.61Z"/>
        </g>
        <g id="_Radial_Repeat_-3" data-name="&amp;lt;Radial Repeat&amp;gt;">
          <path class="cls-1" d="m92.11,153.01l5.19,9.21-59.19,45.61c-7.68,4.33-17.42,1.61-21.75-6.07h0c-4.33-7.68-1.61-17.42,6.07-21.75l69.67-27Z"/>
        </g>
        <g id="_Radial_Repeat_-4" data-name="&amp;lt;Radial Repeat&amp;gt;">
          <path class="cls-1" d="m88.75,135.05l1.27,10.5-72.14,19.49c-8.75,1.06-16.71-5.18-17.77-13.93h0c-1.06-8.75,5.18-16.71,13.93-17.77l74.7,1.71Z"/>
        </g>
        <g id="_Radial_Repeat_-5" data-name="&amp;lt;Radial Repeat&amp;gt;">
          <path class="cls-1" d="m92.51,117.17l-2.84,10.18-74.1-9.6c-8.49-2.37-13.45-11.18-11.08-19.67h0c2.37-8.49,11.18-13.45,19.67-11.08l68.36,30.17Z"/>
        </g>
        <g id="_Radial_Repeat_-6" data-name="&amp;lt;Radial Repeat&amp;gt;">
          <path class="cls-1" d="m102.83,102.09l-6.52,8.32L31.52,73.19c-6.94-5.44-8.15-15.48-2.71-22.41h0c5.44-6.94,15.48-8.15,22.41-2.71l51.61,54.03Z"/>
        </g>
        <g id="_Radial_Repeat_-7" data-name="&amp;lt;Radial Repeat&amp;gt;">
          <path class="cls-1" d="m118.14,92.11l-9.21,5.19-45.61-59.19c-4.33-7.68-1.61-17.42,6.07-21.75h0c7.68-4.33,17.42-1.61,21.75,6.07l27,69.67Z"/>
        </g>
        <g id="_Radial_Repeat_-8" data-name="&amp;lt;Radial Repeat&amp;gt;">
          <path class="cls-1" d="m136.09,88.75l-10.5,1.27-19.49-72.14c-1.06-8.75,5.18-16.71,13.93-17.77h0c8.75-1.06,16.71,5.18,17.77,13.93l-1.71,74.7Z"/>
        </g>
        <g id="_Radial_Repeat_-9" data-name="&amp;lt;Radial Repeat&amp;gt;">
          <path class="cls-1" d="m153.97,92.51l-10.18-2.84,9.6-74.1c2.37-8.49,11.18-13.45,19.67-11.08h0c8.49,2.37,13.45,11.18,11.08,19.67l-30.17,68.36Z"/>
        </g>
        <g id="_Radial_Repeat_-10" data-name="&amp;lt;Radial Repeat&amp;gt;">
          <path class="cls-1" d="m169.05,102.83l-8.32-6.52,37.23-64.79c5.44-6.94,15.48-8.15,22.41-2.71h0c6.94,5.44,8.15,15.48,2.71,22.41l-54.03,51.61Z"/>
        </g>
        <g id="_Radial_Repeat_-11" data-name="&amp;lt;Radial Repeat&amp;gt;">
          <path class="cls-1" d="m179.03,118.14l-5.19-9.21,59.19-45.61c7.68-4.33,17.42-1.61,21.75,6.07h0c4.33,7.68,1.61,17.42-6.07,21.75l-69.67,27Z"/>
        </g>
        <g id="_Radial_Repeat_-12" data-name="&amp;lt;Radial Repeat&amp;gt;">
          <path class="cls-1" d="m182.39,136.09l-1.27-10.5,72.14-19.49c8.75-1.06,16.71,5.18,17.77,13.93h0c1.06,8.75-5.18,16.71-13.93,17.77l-74.7-1.71Z"/>
        </g>
        <g id="_Radial_Repeat_-13" data-name="&amp;lt;Radial Repeat&amp;gt;">
          <path class="cls-1" d="m178.63,153.97l2.84-10.18,74.1,9.6c8.49,2.37,13.45,11.18,11.08,19.67h0c-2.37,8.49-11.18,13.45-19.67,11.08l-68.36-30.17Z"/>
        </g>
        <g id="_Radial_Repeat_-14" data-name="&amp;lt;Radial Repeat&amp;gt;">
          <path class="cls-1" d="m168.31,169.05l6.52-8.32,64.79,37.23c6.94,5.44,8.15,15.48,2.71,22.41h0c-5.44,6.94-15.48,8.15-22.41,2.71l-51.61-54.03Z"/>
        </g>
        <g id="_Radial_Repeat_-15" data-name="&amp;lt;Radial Repeat&amp;gt;">
          <path class="cls-1" d="m153.01,179.03l9.21-5.19,45.61,59.19c4.33,7.68,1.61,17.42-6.07,21.75h0c-7.68,4.33-17.42,1.61-21.75-6.07l-27-69.67Z"/>
        </g>
        <g id="_Radial_Repeat_-16" data-name="&amp;lt;Radial Repeat&amp;gt;">
          <path class="cls-1" d="m135.05,182.39l10.5-1.27,19.49,72.14c1.06,8.75-5.18,16.71-13.93,17.77h0c-8.75,1.06-16.71-5.18-17.77-13.93l1.71-74.7Z"/>
        </g>
      </g>
      <circle class="cls-1" cx="135.57" cy="135.57" r="39.39"/>
    </g>
  </g>
</svg>