<?xml version="1.0" encoding="UTF-8"?>
<svg id="Layer_2" data-name="Layer 2" xmlns="http://www.w3.org/2000/svg" viewBox="0 0 357.53 357.55">
  <defs>
    <style>
      .cls-1 {
        font-family: Helvetica, Helvetica;
        font-size: 30.5px;
      }

      .cls-1, .cls-2 {
        fill: #fff;
      }
    </style>
  </defs>
  <g id="Layer_1-2" data-name="Layer 1">
    <g>
      <g>
        <g>
          <g id="_Radial_Repeat_" data-name="&amp;lt;Radial Repeat&amp;gt;">
            <path class="cls-2" d="m160.36,221.83l10.18,2.84-9.6,74.1c-2.37,8.49-11.18,13.45-19.67,11.08h0c-8.49-2.37-13.45-11.18-11.08-19.67l30.17-68.36Z"/>
          </g>
          <g id="_Radial_Repeat_-2" data-name="&amp;lt;Radial Repeat&amp;gt;">
            <path class="cls-2" d="m145.28,211.51l8.32,6.52-37.23,64.79c-5.44,6.94-15.48,8.15-22.41,2.71h0c-6.94-5.44-8.15-15.48-2.71-22.41l54.03-51.61Z"/>
          </g>
          <g id="_Radial_Repeat_-3" data-name="&amp;lt;Radial Repeat&amp;gt;">
            <path class="cls-2" d="m135.3,196.21l5.19,9.21-59.19,45.61c-7.68,4.33-17.42,1.61-21.75-6.07h0c-4.33-7.68-1.61-17.42,6.07-21.75l69.67-27Z"/>
          </g>
          <g id="_Radial_Repeat_-4" data-name="&amp;lt;Radial Repeat&amp;gt;">
            <path class="cls-2" d="m131.94,178.25l1.27,10.5-72.14,19.49c-8.75,1.06-16.71-5.18-17.77-13.93h0c-1.06-8.75,5.18-16.71,13.93-17.77l74.7,1.71Z"/>
          </g>
          <g id="_Radial_Repeat_-5" data-name="&amp;lt;Radial Repeat&amp;gt;">
            <path class="cls-2" d="m135.7,160.38l-2.84,10.18-74.1-9.6c-8.49-2.37-13.45-11.18-11.08-19.67h0c2.37-8.49,11.18-13.45,19.67-11.08l68.36,30.17Z"/>
          </g>
          <g id="_Radial_Repeat_-6" data-name="&amp;lt;Radial Repeat&amp;gt;">
            <path class="cls-2" d="m146.02,145.3l-6.52,8.32-64.79-37.23c-6.94-5.44-8.15-15.48-2.71-22.41h0c5.44-6.94,15.48-8.15,22.41-2.71l51.61,54.03Z"/>
          </g>
          <g id="_Radial_Repeat_-7" data-name="&amp;lt;Radial Repeat&amp;gt;">
            <path class="cls-2" d="m161.32,135.32l-9.21,5.19-45.61-59.19c-4.33-7.68-1.61-17.42,6.07-21.75h0c7.68-4.33,17.42-1.61,21.75,6.07l27,69.67Z"/>
          </g>
          <g id="_Radial_Repeat_-8" data-name="&amp;lt;Radial Repeat&amp;gt;">
            <path class="cls-2" d="m179.28,131.95l-10.5,1.27-19.49-72.14c-1.06-8.75,5.18-16.71,13.93-17.77h0c8.75-1.06,16.71,5.18,17.77,13.93l-1.71,74.7Z"/>
          </g>
          <g id="_Radial_Repeat_-9" data-name="&amp;lt;Radial Repeat&amp;gt;">
            <path class="cls-2" d="m197.16,135.72l-10.18-2.84,9.6-74.1c2.37-8.49,11.18-13.45,19.67-11.08h0c8.49,2.37,13.45,11.18,11.08,19.67l-30.17,68.36Z"/>
          </g>
          <g id="_Radial_Repeat_-10" data-name="&amp;lt;Radial Repeat&amp;gt;">
            <path class="cls-2" d="m212.24,146.04l-8.32-6.52,37.23-64.79c5.44-6.94,15.48-8.15,22.41-2.71h0c6.94,5.44,8.15,15.48,2.71,22.41l-54.03,51.61Z"/>
          </g>
          <g id="_Radial_Repeat_-11" data-name="&amp;lt;Radial Repeat&amp;gt;">
            <path class="cls-2" d="m222.22,161.34l-5.19-9.21,59.19-45.61c7.68-4.33,17.42-1.61,21.75,6.07h0c4.33,7.68,1.61,17.42-6.07,21.75l-69.67,27Z"/>
          </g>
          <g id="_Radial_Repeat_-12" data-name="&amp;lt;Radial Repeat&amp;gt;">
            <path class="cls-2" d="m225.58,179.3l-1.27-10.5,72.14-19.49c8.75-1.06,16.71,5.18,17.77,13.93h0c1.06,8.75-5.18,16.71-13.93,17.77l-74.7-1.71Z"/>
          </g>
          <g id="_Radial_Repeat_-13" data-name="&amp;lt;Radial Repeat&amp;gt;">
            <path class="cls-2" d="m221.82,197.18l2.84-10.18,74.1,9.6c8.49,2.37,13.45,11.18,11.08,19.67h0c-2.37,8.49-11.18,13.45-19.67,11.08l-68.36-30.17Z"/>
          </g>
          <g id="_Radial_Repeat_-14" data-name="&amp;lt;Radial Repeat&amp;gt;">
            <path class="cls-2" d="m211.5,212.25l6.52-8.32,64.79,37.23c6.94,5.44,8.15,15.48,2.71,22.41h0c-5.44,6.94-15.48,8.15-22.41,2.71l-51.61-54.03Z"/>
          </g>
          <g id="_Radial_Repeat_-15" data-name="&amp;lt;Radial Repeat&amp;gt;">
            <path class="cls-2" d="m196.2,222.23l9.21-5.19,45.61,59.19c4.33,7.68,1.61,17.42-6.07,21.75h0c-7.68,4.33-17.42,1.61-21.75-6.07l-27-69.67Z"/>
          </g>
          <g id="_Radial_Repeat_-16" data-name="&amp;lt;Radial Repeat&amp;gt;">
            <path class="cls-2" d="m178.24,225.6l10.5-1.27,19.49,72.14c1.06,8.75-5.18,16.71-13.93,17.77h0c-8.75,1.06-16.71-5.18-17.77-13.93l1.71-74.7Z"/>
          </g>
        </g>
        <circle class="cls-2" cx="178.76" cy="178.78" r="39.39"/>
      </g>
      <text class="cls-1" transform="translate(204.07 28.08) rotate(12.34)"><tspan x="0" y="0">s</tspan></text>
      <text class="cls-1" transform="translate(219.7 31.49) rotate(18.71)"><tspan x="0" y="0">h</tspan></text>
      <text class="cls-1" transform="translate(236.42 37.2) rotate(25.38)"><tspan x="0" y="0">o</tspan></text>
      <text class="cls-1" transform="translate(252.42 44.65) rotate(32.96)"><tspan x="0" y="0">w</tspan></text>
      <text class="cls-1" transform="translate(271.31 57.34) rotate(39.25)"><tspan x="0" y="0">r</tspan></text>
      <text class="cls-1" transform="translate(279.89 64.19) rotate(44.62)"><tspan x="0" y="0">e</tspan></text>
      <text class="cls-1" transform="translate(292.46 76.66) rotate(51.22)"><tspan x="0" y="0">e</tspan></text>
      <text class="cls-1" transform="translate(303.44 90.72) rotate(55.99)"><tspan x="0" y="0">l</tspan></text>
      <text class="cls-1" transform="translate(307.8 97.19) rotate(59.24)"><tspan x="0" y="0"> </tspan></text>
      <text class="cls-1" transform="translate(312.67 105.17) rotate(64.02)"><tspan x="0" y="0">s</tspan></text>
      <text class="cls-1" transform="translate(319.69 119.56) rotate(70.39)"><tspan x="0" y="0">h</tspan></text>
      <text class="cls-1" transform="translate(325.59 136.22) rotate(77.07)"><tspan x="0" y="0">o</tspan></text>
      <text class="cls-1" transform="translate(329.65 153.38) rotate(84.64)"><tspan x="0" y="0">w</tspan></text>
      <text class="cls-1" transform="translate(331.42 176.07) rotate(90.93)"><tspan x="0" y="0">r</tspan></text>
      <text class="cls-1" transform="translate(331.36 187.09) rotate(96.23)"><tspan x="0" y="0">e</tspan></text>
      <text class="cls-1" transform="translate(329.41 204.65) rotate(102.88)"><tspan x="0" y="0">e</tspan></text>
      <text class="cls-1" transform="translate(325.19 221.99) rotate(107.7)"><tspan x="0" y="0">l</tspan></text>
      <text class="cls-1" transform="translate(322.81 229.41) rotate(110.97)"><tspan x="0" y="0"> </tspan></text>
      <text class="cls-1" transform="translate(319.56 238.19) rotate(115.78)"><tspan x="0" y="0">s</tspan></text>
      <text class="cls-1" transform="translate(312.61 252.6) rotate(122.11)"><tspan x="0" y="0">h</tspan></text>
      <text class="cls-1" transform="translate(303.17 267.56) rotate(128.73)"><tspan x="0" y="0">o</tspan></text>
      <text class="cls-1" transform="translate(292.22 281.4) rotate(136.25)"><tspan x="0" y="0">w</tspan></text>
      <text class="cls-1" transform="translate(275.53 296.87) rotate(142.53)"><tspan x="0" y="0">r</tspan></text>
      <text class="cls-1" transform="translate(266.88 303.65) rotate(147.92)"><tspan x="0" y="0">e</tspan></text>
      <text class="cls-1" transform="translate(251.87 313.01) rotate(154.57)"><tspan x="0" y="0">e</tspan></text>
      <text class="cls-1" transform="translate(235.66 320.45) rotate(159.38)"><tspan x="0" y="0">l</tspan></text>
      <text class="cls-1" transform="translate(228.35 323.19) rotate(162.66)"><tspan x="0" y="0"> </tspan></text>
      <text class="cls-1" transform="translate(219.45 326.08) rotate(167.47)"><tspan x="0" y="0">s</tspan></text>
      <text class="cls-1" transform="translate(203.84 329.55) rotate(173.81)"><tspan x="0" y="0">h</tspan></text>
      <text class="cls-1" transform="translate(186.28 331.5) rotate(-179.07)"><tspan x="0" y="0">o</tspan></text>
      <text class="cls-1" transform="translate(168.6 331.43) rotate(-172.14)"><tspan x="0" y="0">w</tspan></text>
      <text class="cls-1" transform="translate(146.12 327.95) rotate(-165.79)"><tspan x="0" y="0">r</tspan></text>
      <text class="cls-1" transform="translate(135.43 325.38) rotate(-160.35)"><tspan x="0" y="0">e</tspan></text>
      <text class="cls-1" transform="translate(118.78 319.38) rotate(-153.67)"><tspan x="0" y="0">e</tspan></text>
      <text class="cls-1" transform="translate(102.91 311.25) rotate(-148.88)"><tspan x="0" y="0">l</tspan></text>
      <text class="cls-1" transform="translate(96.23 307.21) rotate(-145.63)"><tspan x="0" y="0"> </tspan></text>
      <text class="cls-1" transform="translate(88.46 302.02) rotate(-140.87)"><tspan x="0" y="0">s</tspan></text>
      <text class="cls-1" transform="translate(76.03 291.92) rotate(-134.58)"><tspan x="0" y="0">h</tspan></text>
      <text class="cls-1" transform="translate(63.63 279.29) rotate(-127.98)"><tspan x="0" y="0">o</tspan></text>
      <text class="cls-1" transform="translate(52.69 265.47) rotate(-120.44)"><tspan x="0" y="0">w</tspan></text>
      <text class="cls-1" transform="translate(41.47 245.65) rotate(-114.1)"><tspan x="0" y="0">r</tspan></text>
      <text class="cls-1" transform="translate(36.87 235.67) rotate(-108.66)"><tspan x="0" y="0">e</tspan></text>
      <text class="cls-1" transform="translate(31.25 218.9) rotate(-101.98)"><tspan x="0" y="0">e</tspan></text>
      <text class="cls-1" transform="translate(27.8 201.42) rotate(-97.19)"><tspan x="0" y="0">l</tspan></text>
      <text class="cls-1" transform="translate(26.83 193.68) rotate(-93.96)"><tspan x="0" y="0"> </tspan></text>
      <text class="cls-1" transform="translate(26.06 184.37) rotate(-89.07)"><tspan x="0" y="0">s</tspan></text>
      <text class="cls-1" transform="translate(26.29 168.33) rotate(-82.97)"><tspan x="0" y="0">h</tspan></text>
      <text class="cls-1" transform="translate(28.49 150.77) rotate(-76.31)"><tspan x="0" y="0">o</tspan></text>
      <text class="cls-1" transform="translate(32.54 133.63) rotate(-68.7)"><tspan x="0" y="0">w</tspan></text>
      <text class="cls-1" transform="translate(41.16 112.55) rotate(-62.35)"><tspan x="0" y="0">r</tspan></text>
      <text class="cls-1" transform="translate(46.14 102.77) rotate(-56.95)"><tspan x="0" y="0">e</tspan></text>
      <text class="cls-1" transform="translate(55.84 87.96) rotate(-50.33)"><tspan x="0" y="0">e</tspan></text>
      <text class="cls-1" transform="translate(67.4 74.4) rotate(-45.58)"><tspan x="0" y="0">l</tspan></text>
      <text class="cls-1" transform="translate(72.88 68.81) rotate(-42.34)"><tspan x="0" y="0"> </tspan></text>
      <text class="cls-1" transform="translate(79.73 62.43) rotate(-37.58)"><tspan x="0" y="0">s</tspan></text>
      <text class="cls-1" transform="translate(92.41 52.66) rotate(-31.27)"><tspan x="0" y="0">h</tspan></text>
      <text class="cls-1" transform="translate(107.54 43.52) rotate(-24.62)"><tspan x="0" y="0">o</tspan></text>
      <text class="cls-1" transform="translate(123.5 36.07) rotate(-17.02)"><tspan x="0" y="0">w</tspan></text>
      <text class="cls-1" transform="translate(145.38 29.76) rotate(-10.66)"><tspan x="0" y="0">r</tspan></text>
      <text class="cls-1" transform="translate(156.16 27.61) rotate(-5.26)"><tspan x="0" y="0">e</tspan></text>
      <text class="cls-1" transform="translate(173.79 26.03) rotate(1.29)"><tspan x="0" y="0">e</tspan></text>
      <text class="cls-1" transform="translate(191.62 26.68) rotate(6.04)"><tspan x="0" y="0">l</tspan></text>
    </g>
  </g>
</svg>